Archivo Black-Regular.ufo
<glyph name="parenleft" format="1">
  <advance width="389"/>
  <unicode hex="0028"/>
  <outline>
    <contour>
      <point x="235" y="737" type="line"/>
      <point x="120" y="614"/>
      <point x="55" y="452"/>
      <point x="55" y="288" type="curve" smooth="yes"/>
      <point x="55" y="125"/>
      <point x="120" y="-37"/>
      <point x="235" y="-160" type="curve"/>
      <point x="355" y="-160" type="line"/>
      <point x="276" y="-37"/>
      <point x="222" y="146"/>
      <point x="222" y="288" type="curve" smooth="yes"/>
      <point x="222" y="429"/>
      <point x="276" y="614"/>
      <point x="355" y="737" type="curve"/>
    </contour>
  </outline>
</glyph>
<glyph name="equal" format="1">
  <advance width="660"/>
  <unicode hex="003D"/>
  <outline>
    <contour>
      <point x="594" y="443" type="line"/>
      <point x="66" y="443" type="line"/>
      <point x="66" y="311" type="line"/>
      <point x="594" y="311" type="line"/>
    </contour>
    <contour>
      <point x="594" y="217" type="line"/>
      <point x="66" y="217" type="line"/>
      <point x="66" y="85" type="line"/>
      <point x="594" y="85" type="line"/>
    </contour>
  </outline>
</glyph>
<glyph name="question" format="1">
  <advance width="611"/>
  <unicode hex="003F"/>
  <outline>
    <contour>
      <point x="153" y="700"/>
      <point x="37" y="619"/>
      <point x="37" y="489" type="curve" smooth="yes"/>
      <point x="37" y="476"/>
      <point x="39" y="464"/>
      <point x="40" y="451" type="curve"/>
      <point x="224" y="451" type="line"/>
      <point x="223" y="460"/>
      <point x="223" y="469"/>
      <point x="223" y="478" type="curve" smooth="yes"/>
      <point x="223" y="520"/>
      <point x="234" y="562"/>
      <point x="288" y="562" type="curve" smooth="yes"/>
      <point x="330" y="562"/>
      <point x="354" y="529"/>
      <point x="354" y="492" type="curve" smooth="yes"/>
      <point x="354" y="411"/>
      <point x="224" y="369"/>
      <point x="224" y="296" type="curve" smooth="yes"/>
      <point x="224" y="246" type="line"/>
      <point x="395" y="246" type="line"/>
      <point x="395" y="267" type="line" smooth="yes"/>
      <point x="395" y="320"/>
      <point x="566" y="360"/>
      <point x="566" y="496" type="curve" smooth="yes"/>
      <point x="566" y="620"/>
      <point x="463" y="700"/>
      <point x="310" y="700" type="curve" smooth="yes"/>
    </contour>
    <contour>
      <point x="410" y="185" type="line"/>
      <point x="212" y="185" type="line"/>
      <point x="212" y="0" type="line"/>
      <point x="410" y="0" type="line"/>
    </contour>
  </outline>
</glyph>
<glyph name="E" format="1">
  <advance width="722"/>
  <unicode hex="0045"/>
  <outline>
    <contour>
      <point x="676" y="0" type="line"/>
      <point x="676" y="165" type="line"/>
      <point x="295" y="165" type="line"/>
      <point x="295" y="270" type="line"/>
      <point x="615" y="270" type="line"/>
      <point x="615" y="428" type="line"/>
      <point x="295" y="428" type="line"/>
      <point x="295" y="523" type="line"/>
      <point x="669" y="523" type="line"/>
      <point x="669" y="688" type="line"/>
      <point x="74" y="688" type="line"/>
      <point x="74" y="0" type="line"/>
    </contour>
    <contour>
      <point x="650" y="10" type="move" name="ogonek"/>
    </contour>
    <contour>
      <point x="361" y="0" type="move" name="bottom"/>
    </contour>
    <contour>
      <point x="361" y="688" type="move" name="top"/>
    </contour>
  </outline>
</glyph>
<glyph name="P" format="1">
  <advance width="722"/>
  <unicode hex="0050"/>
  <outline>
    <contour>
      <point x="74" y="688" type="line"/>
      <point x="74" y="0" type="line"/>
      <point x="295" y="0" type="line"/>
      <point x="295" y="222" type="line"/>
      <point x="460" y="222" type="line" smooth="yes"/>
      <point x="590" y="222"/>
      <point x="680" y="319"/>
      <point x="680" y="449" type="curve" smooth="yes"/>
      <point x="680" y="462" type="line" smooth="yes"/>
      <point x="680" y="592"/>
      <point x="590" y="688"/>
      <point x="460" y="688" type="curve" smooth="yes"/>
    </contour>
    <contour>
      <point x="386" y="525" type="line" smooth="yes"/>
      <point x="434" y="525"/>
      <point x="456" y="499"/>
      <point x="456" y="458" type="curve" smooth="yes"/>
      <point x="456" y="450" type="line" smooth="yes"/>
      <point x="456" y="409"/>
      <point x="433" y="383"/>
      <point x="386" y="383" type="curve" smooth="yes"/>
      <point x="295" y="383" type="line"/>
      <point x="295" y="525" type="line"/>
    </contour>
  </outline>
</glyph>
<glyph name="X" format="1">
  <advance width="778"/>
  <unicode hex="0058"/>
  <outline>
    <contour>
      <point x="755" y="688" type="line"/>
      <point x="508" y="688" type="line"/>
      <point x="403" y="512" type="line"/>
      <point x="399" y="512" type="line"/>
      <point x="295" y="688" type="line"/>
      <point x="28" y="688" type="line"/>
      <point x="250" y="364" type="line"/>
      <point x="4" y="0" type="line"/>
      <point x="252" y="0" type="line"/>
      <point x="379" y="214" type="line"/>
      <point x="383" y="214" type="line"/>
      <point x="510" y="0" type="line"/>
      <point x="778" y="0" type="line"/>
      <point x="532" y="363" type="line"/>
    </contour>
  </outline>
</glyph>
<glyph name="asciicircum" format="1">
  <advance width="660"/>
  <unicode hex="005E"/>
  <outline>
    <contour>
      <point x="401" y="688" type="line"/>
      <point x="258" y="688" type="line"/>
      <point x="55" y="337" type="line"/>
      <point x="199" y="337" type="line"/>
      <point x="331" y="549" type="line"/>
      <point x="462" y="337" type="line"/>
      <point x="604" y="337" type="line"/>
    </contour>
  </outline>
</glyph>
<glyph name="grave" format="1">
  <advance width="333"/>
  <unicode hex="0060"/>
  <outline>
    <contour>
      <point x="218" y="725" type="line"/>
      <point x="25" y="725" type="line"/>
      <point x="23" y="721" type="line"/>
      <point x="183" y="592" type="line"/>
      <point x="310" y="592" type="line"/>
    </contour>
    <contour>
      <point x="167" y="528" type="move" name="_top"/>
    </contour>
  </outline>
</glyph>
<glyph name="b" format="1">
  <advance width="667"/>
  <unicode hex="0062"/>
  <outline>
    <contour>
      <point x="260" y="725" type="line"/>
      <point x="61" y="725" type="line"/>
      <point x="61" y="0" type="line"/>
      <point x="223" y="0" type="line"/>
      <point x="240" y="75" type="line"/>
      <point x="279" y="16"/>
      <point x="337" y="-12"/>
      <point x="408" y="-12" type="curve" smooth="yes"/>
      <point x="548" y="-12"/>
      <point x="631" y="79"/>
      <point x="631" y="265" type="curve" smooth="yes"/>
      <point x="631" y="449"/>
      <point x="548" y="540"/>
      <point x="408" y="540" type="curve" smooth="yes"/>
      <point x="348" y="540"/>
      <point x="298" y="520"/>
      <point x="260" y="479" type="curve"/>
    </contour>
    <contour>
      <point x="408" y="393"/>
      <point x="432" y="352"/>
      <point x="432" y="290" type="curve" smooth="yes"/>
      <point x="432" y="237" type="line" smooth="yes"/>
      <point x="432" y="175"/>
      <point x="408" y="135"/>
      <point x="346" y="135" type="curve" smooth="yes"/>
      <point x="284" y="135"/>
      <point x="258" y="185"/>
      <point x="258" y="247" type="curve" smooth="yes"/>
      <point x="258" y="280" type="line" smooth="yes"/>
      <point x="258" y="342"/>
      <point x="284" y="393"/>
      <point x="346" y="393" type="curve" smooth="yes"/>
    </contour>
  </outline>
</glyph>
<glyph name="e" format="1">
  <advance width="667"/>
  <unicode hex="0065"/>
  <outline>
    <contour>
      <point x="153" y="540"/>
      <point x="36" y="449"/>
      <point x="36" y="264" type="curve" smooth="yes"/>
      <point x="36" y="74"/>
      <point x="155" y="-12"/>
      <point x="345" y="-12" type="curve" smooth="yes"/>
      <point x="535" y="-12"/>
      <point x="631" y="66"/>
      <point x="631" y="192" type="curve"/>
      <point x="438" y="192" type="line"/>
      <point x="438" y="149"/>
      <point x="412" y="115"/>
      <point x="341" y="115" type="curve" smooth="yes"/>
      <point x="265" y="115"/>
      <point x="235" y="157"/>
      <point x="235" y="230" type="curve"/>
      <point x="631" y="230" type="line"/>
      <point x="631" y="264" type="line" smooth="yes"/>
      <point x="631" y="454"/>
      <point x="523" y="540"/>
      <point x="333" y="540" type="curve" smooth="yes"/>
    </contour>
    <contour>
      <point x="397" y="413"/>
      <point x="430" y="379"/>
      <point x="430" y="324" type="curve"/>
      <point x="236" y="324" type="line"/>
      <point x="243" y="379"/>
      <point x="274" y="413"/>
      <point x="341" y="413" type="curve" smooth="yes"/>
    </contour>
    <contour>
      <point x="600" y="10" type="move" name="ogonek"/>
    </contour>
    <contour>
      <point x="334" y="0" type="move" name="bottom"/>
    </contour>
    <contour>
      <point x="334" y="528" type="move" name="top"/>
    </contour>
  </outline>
</glyph>
<glyph name="w" format="1">
  <advance width="944"/>
  <unicode hex="0077"/>
  <outline>
    <contour>
      <point x="944" y="528" type="line"/>
      <point x="750" y="528" type="line"/>
      <point x="669" y="216" type="line"/>
      <point x="662" y="216" type="line"/>
      <point x="582" y="528" type="line"/>
      <point x="384" y="528" type="line"/>
      <point x="301" y="216" type="line"/>
      <point x="294" y="216" type="line"/>
      <point x="214" y="528" type="line"/>
      <point x="0" y="528" type="line"/>
      <point x="193" y="0" type="line"/>
      <point x="387" y="0" type="line"/>
      <point x="470" y="294" type="line"/>
      <point x="474" y="294" type="line"/>
      <point x="556" y="0" type="line"/>
      <point x="750" y="0" type="line"/>
    </contour>
    <contour>
      <point x="472" y="528" type="move" name="top"/>
    </contour>
  </outline>
</glyph>
<glyph name="bar" format="1">
  <advance width="278"/>
  <unicode hex="007C"/>
  <outline>
    <contour>
      <point x="201" y="726" type="line"/>
      <point x="77" y="726" type="line"/>
      <point x="77" y="-211" type="line"/>
      <point x="201" y="-211" type="line"/>
    </contour>
  </outline>
</glyph>
<glyph name="brokenbar" format="1">
  <advance width="278"/>
  <unicode hex="00A6"/>
  <outline>
    <contour>
      <point x="202" y="726" type="line"/>
      <point x="78" y="726" type="line"/>
      <point x="78" y="336" type="line"/>
      <point x="202" y="336" type="line"/>
    </contour>
    <contour>
      <point x="202" y="180" type="line"/>
      <point x="78" y="180" type="line"/>
      <point x="78" y="-210" type="line"/>
      <point x="202" y="-210" type="line"/>
    </contour>
  </outline>
</glyph>
<glyph name="logicalnot" format="1">
  <advance width="660"/>
  <unicode hex="00AC"/>
  <outline>
    <contour>
      <point x="604" y="490" type="line"/>
      <point x="50" y="490" type="line"/>
      <point x="50" y="335" type="line"/>
      <point x="450" y="335" type="line"/>
      <point x="450" y="154" type="line"/>
      <point x="604" y="154" type="line"/>
    </contour>
  </outline>
</glyph>
<glyph name="acute" format="1">
  <advance width="333"/>
  <unicode hex="00B4"/>
  <outline>
    <contour>
      <point x="315" y="725" type="line"/>
      <point x="122" y="725" type="line"/>
      <point x="30" y="592" type="line"/>
      <point x="157" y="592" type="line"/>
      <point x="317" y="721" type="line"/>
    </contour>
    <contour>
      <point x="174" y="528" type="move" name="_top"/>
    </contour>
  </outline>
</glyph>
<glyph name="paragraph" format="1">
  <advance width="850"/>
  <unicode hex="00B6"/>
  <outline>
    <contour>
      <point x="744" y="688" type="line"/>
      <point x="325" y="688" type="line" smooth="yes"/>
      <point x="205" y="688"/>
      <point x="109" y="591"/>
      <point x="109" y="471" type="curve" smooth="yes"/>
      <point x="109" y="354"/>
      <point x="200" y="259"/>
      <point x="316" y="255" type="curve"/>
      <point x="316" y="-161" type="line"/>
      <point x="444" y="-161" type="line"/>
      <point x="444" y="567" type="line"/>
      <point x="550" y="567" type="line"/>
      <point x="550" y="-161" type="line"/>
      <point x="678" y="-161" type="line"/>
      <point x="678" y="567" type="line"/>
      <point x="744" y="567" type="line"/>
    </contour>
  </outline>
</glyph>
<glyph name="periodcentered" format="1">
  <advance width="333"/>
  <unicode hex="00B7"/>
  <outline>
    <contour>
      <point x="262" y="418" type="line"/>
      <point x="71" y="418" type="line"/>
      <point x="71" y="235" type="line"/>
      <point x="262" y="235" type="line"/>
    </contour>
  </outline>
</glyph>
<glyph name="guillemotright" format="1">
  <advance width="667"/>
  <unicode hex="00BB"/>
  <outline>
    <contour>
      <point x="199" y="324" type="line"/>
      <point x="61" y="119" type="line"/>
      <point x="204" y="119" type="line"/>
      <point x="371" y="324" type="line"/>
      <point x="204" y="528" type="line"/>
      <point x="61" y="528" type="line"/>
    </contour>
    <contour>
      <point x="435" y="324" type="line"/>
      <point x="297" y="119" type="line"/>
      <point x="440" y="119" type="line"/>
      <point x="607" y="324" type="line"/>
      <point x="440" y="528" type="line"/>
      <point x="297" y="528" type="line"/>
    </contour>
  </outline>
</glyph>
<glyph name="Atilde" format="1">
  <advance width="778"/>
  <unicode hex="00C3"/>
  <outline>
    <contour>
      <point x="518" y="688" type="line"/>
      <point x="261" y="688" type="line"/>
      <point x="10" y="0" type="line"/>
      <point x="236" y="0" type="line"/>
      <point x="265" y="97" type="line"/>
      <point x="506" y="97" type="line"/>
      <point x="535" y="0" type="line"/>
      <point x="769" y="0" type="line"/>
    </contour>
    <contour>
      <point x="388" y="496" type="line"/>
      <point x="460" y="251" type="line"/>
      <point x="311" y="251" type="line"/>
      <point x="384" y="496" type="line"/>
    </contour>
    <contour>
      <point x="530" y="885" type="line"/>
      <point x="523" y="862"/>
      <point x="505" y="845"/>
      <point x="480" y="845" type="curve" smooth="yes"/>
      <point x="426" y="845"/>
      <point x="371" y="885"/>
      <point x="307" y="885" type="curve" smooth="yes"/>
      <point x="223" y="885"/>
      <point x="167" y="814"/>
      <point x="167" y="742" type="curve"/>
      <point x="248" y="742" type="line"/>
      <point x="255" y="765"/>
      <point x="273" y="782"/>
      <point x="298" y="782" type="curve" smooth="yes"/>
      <point x="352" y="782"/>
      <point x="407" y="742"/>
      <point x="471" y="742" type="curve" smooth="yes"/>
      <point x="555" y="742"/>
      <point x="611" y="813"/>
      <point x="611" y="885" type="curve"/>
    </contour>
  </outline>
</glyph>
<glyph name="Udieresis" format="1">
  <advance width="833"/>
  <unicode hex="00DC"/>
  <outline>
    <contour>
      <point x="759" y="688" type="line"/>
      <point x="538" y="688" type="line"/>
      <point x="538" y="280" type="line" smooth="yes"/>
      <point x="538" y="206"/>
      <point x="497" y="153"/>
      <point x="416" y="153" type="curve" smooth="yes"/>
      <point x="335" y="153"/>
      <point x="295" y="206"/>
      <point x="295" y="280" type="curve" smooth="yes"/>
      <point x="295" y="688" type="line"/>
      <point x="74" y="688" type="line"/>
      <point x="74" y="277" type="line" smooth="yes"/>
      <point x="74" y="87"/>
      <point x="201" y="-12"/>
      <point x="417" y="-12" type="curve" smooth="yes"/>
      <point x="633" y="-12"/>
      <point x="759" y="87"/>
      <point x="759" y="277" type="curve" smooth="yes"/>
    </contour>
    <contour>
      <point x="603" y="885" type="line"/>
      <point x="451" y="885" type="line"/>
      <point x="451" y="746" type="line"/>
      <point x="603" y="746" type="line"/>
    </contour>
    <contour>
      <point x="382" y="885" type="line"/>
      <point x="230" y="885" type="line"/>
      <point x="230" y="746" type="line"/>
      <point x="382" y="746" type="line"/>
    </contour>
  </outline>
</glyph>
<glyph name="Thorn" format="1">
  <advance width="722"/>
  <unicode hex="00DE"/>
  <outline>
    <contour>
      <point x="295" y="688" type="line"/>
      <point x="74" y="688" type="line"/>
      <point x="74" y="0" type="line"/>
      <point x="295" y="0" type="line"/>
      <point x="295" y="122" type="line"/>
      <point x="460" y="122" type="line" smooth="yes"/>
      <point x="590" y="122"/>
      <point x="680" y="219"/>
      <point x="680" y="349" type="curve" smooth="yes"/>
      <point x="680" y="362" type="line" smooth="yes"/>
      <point x="680" y="492"/>
      <point x="590" y="588"/>
      <point x="460" y="588" type="curve" smooth="yes"/>
      <point x="295" y="588" type="line"/>
    </contour>
    <contour>
      <point x="386" y="425" type="line" smooth="yes"/>
      <point x="434" y="425"/>
      <point x="456" y="399"/>
      <point x="456" y="358" type="curve" smooth="yes"/>
      <point x="456" y="350" type="line" smooth="yes"/>
      <point x="456" y="309"/>
      <point x="433" y="283"/>
      <point x="386" y="283" type="curve" smooth="yes"/>
      <point x="295" y="283" type="line"/>
      <point x="295" y="425" type="line"/>
    </contour>
  </outline>
</glyph>
<glyph name="ccedilla" format="1">
  <advance width="667"/>
  <unicode hex="00E7"/>
  <outline>
    <contour>
      <point x="153" y="540"/>
      <point x="36" y="449"/>
      <point x="36" y="264" type="curve" smooth="yes"/>
      <point x="36" y="89"/>
      <point x="140" y="-1"/>
      <point x="304" y="-11" type="curve"/>
      <point x="292" y="-86" type="line"/>
      <point x="331" y="-86" type="line" smooth="yes"/>
      <point x="359" y="-86"/>
      <point x="369" y="-98"/>
      <point x="369" y="-118" type="curve" smooth="yes"/>
      <point x="369" y="-141"/>
      <point x="353" y="-149"/>
      <point x="329" y="-149" type="curve" smooth="yes"/>
      <point x="276" y="-149"/>
      <point x="211" y="-141"/>
      <point x="211" y="-141" type="curve"/>
      <point x="211" y="-195" type="line"/>
      <point x="241" y="-205"/>
      <point x="292" y="-211"/>
      <point x="337" y="-211" type="curve" smooth="yes"/>
      <point x="384" y="-211"/>
      <point x="456" y="-194"/>
      <point x="456" y="-118" type="curve" smooth="yes"/>
      <point x="456" y="-56"/>
      <point x="412" y="-34"/>
      <point x="363" y="-29" type="curve"/>
      <point x="365" y="-11" type="line"/>
      <point x="511" y="-2"/>
      <point x="624" y="65"/>
      <point x="624" y="215" type="curve"/>
      <point x="439" y="215" type="line"/>
      <point x="439" y="150"/>
      <point x="402" y="123"/>
      <point x="337" y="123" type="curve" smooth="yes"/>
      <point x="264" y="123"/>
      <point x="235" y="165"/>
      <point x="235" y="235" type="curve" smooth="yes"/>
      <point x="235" y="292" type="line" smooth="yes"/>
      <point x="235" y="362"/>
      <point x="263" y="405"/>
      <point x="333" y="405" type="curve" smooth="yes"/>
      <point x="395" y="405"/>
      <point x="431" y="377"/>
      <point x="431" y="315" type="curve"/>
      <point x="624" y="315" type="line"/>
      <point x="624" y="476"/>
      <point x="494" y="540"/>
      <point x="333" y="540" type="curve" smooth="yes"/>
    </contour>
  </outline>
</glyph>
<glyph name="thorn" format="1">
  <advance width="667"/>
  <unicode hex="00FE"/>
  <outline>
    <contour>
      <point x="260" y="725" type="line"/>
      <point x="61" y="725" type="line"/>
      <point x="61" y="-197" type="line"/>
      <point x="260" y="-197" type="line"/>
      <point x="260" y="48" type="line"/>
      <point x="298" y="7"/>
      <point x="348" y="-12"/>
      <point x="408" y="-12" type="curve" smooth="yes"/>
      <point x="548" y="-12"/>
      <point x="631" y="79"/>
      <point x="631" y="263" type="curve" smooth="yes"/>
      <point x="631" y="449"/>
      <point x="548" y="540"/>
      <point x="408" y="540" type="curve" smooth="yes"/>
      <point x="348" y="540"/>
      <point x="298" y="520"/>
      <point x="260" y="478" type="curve"/>
    </contour>
    <contour>
      <point x="408" y="393"/>
      <point x="432" y="353"/>
      <point x="432" y="291" type="curve" smooth="yes"/>
      <point x="432" y="238" type="line" smooth="yes"/>
      <point x="432" y="176"/>
      <point x="408" y="135"/>
      <point x="346" y="135" type="curve" smooth="yes"/>
      <point x="284" y="135"/>
      <point x="258" y="186"/>
      <point x="258" y="248" type="curve" smooth="yes"/>
      <point x="258" y="281" type="line" smooth="yes"/>
      <point x="258" y="343"/>
      <point x="284" y="393"/>
      <point x="346" y="393" type="curve" smooth="yes"/>
    </contour>
  </outline>
</glyph>
<glyph name="Ebreve" format="1">
  <advance width="722"/>
  <unicode hex="0114"/>
  <outline>
    <contour>
      <point x="475" y="885" type="line"/>
      <point x="471" y="864"/>
      <point x="435" y="835"/>
      <point x="385" y="835" type="curve" smooth="yes"/>
      <point x="336" y="835"/>
      <point x="301" y="864"/>
      <point x="297" y="885" type="curve"/>
      <point x="201" y="885" type="line"/>
      <point x="201" y="818"/>
      <point x="270" y="741"/>
      <point x="385" y="741" type="curve" smooth="yes"/>
      <point x="499" y="741"/>
      <point x="570" y="818"/>
      <point x="570" y="885" type="curve"/>
    </contour>
    <contour>
      <point x="676" y="0" type="line"/>
      <point x="676" y="165" type="line"/>
      <point x="295" y="165" type="line"/>
      <point x="295" y="270" type="line"/>
      <point x="615" y="270" type="line"/>
      <point x="615" y="428" type="line"/>
      <point x="295" y="428" type="line"/>
      <point x="295" y="523" type="line"/>
      <point x="669" y="523" type="line"/>
      <point x="669" y="688" type="line"/>
      <point x="74" y="688" type="line"/>
      <point x="74" y="0" type="line"/>
    </contour>
  </outline>
</glyph>
<glyph name="Eogonek" format="1">
  <advance width="722"/>
  <unicode hex="0118"/>
  <outline>
    <contour>
      <point x="669" y="688" type="line"/>
      <point x="74" y="688" type="line"/>
      <point x="74" y="0" type="line"/>
      <point x="531" y="0" type="line"/>
      <point x="511" y="-25"/>
      <point x="491" y="-55"/>
      <point x="491" y="-97" type="curve" smooth="yes"/>
      <point x="491" y="-179"/>
      <point x="553" y="-211"/>
      <point x="617" y="-211" type="curve" smooth="yes"/>
      <point x="650" y="-211"/>
      <point x="682" y="-206"/>
      <point x="713" y="-196" type="curve"/>
      <point x="713" y="-120" type="line"/>
      <point x="671" y="-120" type="line" smooth="yes"/>
      <point x="626" y="-120"/>
      <point x="611" y="-95"/>
      <point x="611" y="-69" type="curve" smooth="yes"/>
      <point x="611" y="-43"/>
      <point x="620" y="-16"/>
      <point x="627" y="0" type="curve"/>
      <point x="676" y="0" type="line"/>
      <point x="676" y="165" type="line"/>
      <point x="295" y="165" type="line"/>
      <point x="295" y="270" type="line"/>
      <point x="615" y="270" type="line"/>
      <point x="615" y="428" type="line"/>
      <point x="295" y="428" type="line"/>
      <point x="295" y="523" type="line"/>
      <point x="669" y="523" type="line"/>
    </contour>
  </outline>
</glyph>
<glyph name="Hcircumflex" format="1">
  <advance width="833"/>
  <unicode hex="0124"/>
  <outline>
    <contour>
      <point x="759" y="688" type="line"/>
      <point x="538" y="688" type="line"/>
      <point x="538" y="437" type="line"/>
      <point x="295" y="437" type="line"/>
      <point x="295" y="688" type="line"/>
      <point x="74" y="688" type="line"/>
      <point x="74" y="0" type="line"/>
      <point x="295" y="0" type="line"/>
      <point x="295" y="261" type="line"/>
      <point x="538" y="261" type="line"/>
      <point x="538" y="0" type="line"/>
      <point x="759" y="0" type="line"/>
    </contour>
    <contour>
      <point x="480" y="885" type="line"/>
      <point x="353" y="885" type="line"/>
      <point x="213" y="740" type="line"/>
      <point x="341" y="740" type="line"/>
      <point x="416" y="817" type="line"/>
      <point x="490" y="740" type="line"/>
      <point x="620" y="740" type="line"/>
    </contour>
  </outline>
</glyph>
<glyph name="Itilde" format="1">
  <advance width="389"/>
  <unicode hex="0128"/>
  <outline>
    <contour>
      <point x="305" y="688" type="line"/>
      <point x="84" y="688" type="line"/>
      <point x="84" y="0" type="line"/>
      <point x="305" y="0" type="line"/>
    </contour>
    <contour>
      <point x="336" y="885" type="line"/>
      <point x="329" y="862"/>
      <point x="311" y="845"/>
      <point x="286" y="845" type="curve" smooth="yes"/>
      <point x="232" y="845"/>
      <point x="177" y="885"/>
      <point x="113" y="885" type="curve" smooth="yes"/>
      <point x="29" y="885"/>
      <point x="-27" y="814"/>
      <point x="-27" y="742" type="curve"/>
      <point x="54" y="742" type="line"/>
      <point x="61" y="765"/>
      <point x="79" y="782"/>
      <point x="104" y="782" type="curve" smooth="yes"/>
      <point x="158" y="782"/>
      <point x="213" y="742"/>
      <point x="277" y="742" type="curve" smooth="yes"/>
      <point x="361" y="742"/>
      <point x="417" y="813"/>
      <point x="417" y="885" type="curve"/>
    </contour>
  </outline>
</glyph>
<glyph name="itilde" format="1">
  <advance width="333"/>
  <unicode hex="0129"/>
  <outline>
    <contour>
      <point x="266" y="528" type="line"/>
      <point x="67" y="528" type="line"/>
      <point x="67" y="0" type="line"/>
      <point x="266" y="0" type="line"/>
    </contour>
    <contour>
      <point x="308" y="725" type="line"/>
      <point x="300" y="702"/>
      <point x="283" y="685"/>
      <point x="257" y="685" type="curve" smooth="yes"/>
      <point x="204" y="685"/>
      <point x="148" y="725"/>
      <point x="84" y="725" type="curve" smooth="yes"/>
      <point x="0" y="725"/>
      <point x="-56" y="654"/>
      <point x="-56" y="582" type="curve"/>
      <point x="25" y="582" type="line"/>
      <point x="33" y="605"/>
      <point x="50" y="622"/>
      <point x="76" y="622" type="curve" smooth="yes"/>
      <point x="129" y="622"/>
      <point x="185" y="582"/>
      <point x="249" y="582" type="curve" smooth="yes"/>
      <point x="333" y="582"/>
      <point x="389" y="653"/>
      <point x="389" y="725" type="curve"/>
    </contour>
  </outline>
</glyph>
<glyph name="Iogonek" format="1">
  <advance width="389"/>
  <unicode hex="012E"/>
  <outline>
    <contour>
      <point x="305" y="688" type="line"/>
      <point x="84" y="688" type="line"/>
      <point x="84" y="0" type="line"/>
      <point x="203" y="0" type="line"/>
      <point x="183" y="-25"/>
      <point x="163" y="-55"/>
      <point x="163" y="-97" type="curve" smooth="yes"/>
      <point x="163" y="-179"/>
      <point x="225" y="-211"/>
      <point x="289" y="-211" type="curve" smooth="yes"/>
      <point x="322" y="-211"/>
      <point x="354" y="-206"/>
      <point x="385" y="-196" type="curve"/>
      <point x="385" y="-120" type="line"/>
      <point x="343" y="-120" type="line" smooth="yes"/>
      <point x="298" y="-120"/>
      <point x="283" y="-95"/>
      <point x="283" y="-69" type="curve" smooth="yes"/>
      <point x="283" y="-43"/>
      <point x="292" y="-16"/>
      <point x="299" y="0" type="curve"/>
      <point x="305" y="0" type="line"/>
    </contour>
  </outline>
</glyph>
<glyph name="iogonek" format="1">
  <advance width="333"/>
  <unicode hex="012F"/>
  <outline>
    <contour>
      <point x="266" y="528" type="line"/>
      <point x="67" y="528" type="line"/>
      <point x="67" y="0" type="line"/>
      <point x="146" y="0" type="line"/>
      <point x="126" y="-25"/>
      <point x="106" y="-55"/>
      <point x="106" y="-97" type="curve" smooth="yes"/>
      <point x="106" y="-179"/>
      <point x="168" y="-211"/>
      <point x="233" y="-211" type="curve" smooth="yes"/>
      <point x="266" y="-211"/>
      <point x="298" y="-206"/>
      <point x="329" y="-196" type="curve"/>
      <point x="329" y="-120" type="line"/>
      <point x="287" y="-120" type="line" smooth="yes"/>
      <point x="242" y="-120"/>
      <point x="227" y="-95"/>
      <point x="227" y="-69" type="curve" smooth="yes"/>
      <point x="227" y="-43"/>
      <point x="235" y="-16"/>
      <point x="243" y="0" type="curve"/>
      <point x="266" y="0" type="line"/>
    </contour>
    <contour>
      <point x="243" y="725" type="line"/>
      <point x="90" y="725" type="line"/>
      <point x="90" y="586" type="line"/>
      <point x="243" y="586" type="line"/>
    </contour>
  </outline>
</glyph>
<glyph name="Idotaccent" format="1">
  <advance width="389"/>
  <unicode hex="0130"/>
  <outline>
    <contour>
      <point x="305" y="688" type="line"/>
      <point x="84" y="688" type="line"/>
      <point x="84" y="0" type="line"/>
      <point x="305" y="0" type="line"/>
    </contour>
    <contour>
      <point x="271" y="885" type="line"/>
      <point x="119" y="885" type="line"/>
      <point x="119" y="746" type="line"/>
      <point x="271" y="746" type="line"/>
    </contour>
  </outline>
</glyph>
<glyph name="Jcircumflex" format="1">
  <advance width="667"/>
  <unicode hex="0134"/>
  <outline>
    <contour>
      <point x="593" y="688" type="line"/>
      <point x="372" y="688" type="line"/>
      <point x="372" y="240" type="line" smooth="yes"/>
      <point x="372" y="176"/>
      <point x="348" y="153"/>
      <point x="301" y="153" type="curve" smooth="yes"/>
      <point x="254" y="153"/>
      <point x="230" y="176"/>
      <point x="230" y="240" type="curve" smooth="yes"/>
      <point x="230" y="248" type="line"/>
      <point x="23" y="248" type="line"/>
      <point x="23" y="239" type="line" smooth="yes"/>
      <point x="23" y="63"/>
      <point x="130" y="-12"/>
      <point x="308" y="-12" type="curve" smooth="yes"/>
      <point x="486" y="-12"/>
      <point x="593" y="63"/>
      <point x="593" y="239" type="curve" smooth="yes"/>
    </contour>
    <contour>
      <point x="536" y="885" type="line"/>
      <point x="408" y="885" type="line"/>
      <point x="269" y="740" type="line"/>
      <point x="396" y="740" type="line"/>
      <point x="471" y="817" type="line"/>
      <point x="545" y="740" type="line"/>
      <point x="675" y="740" type="line"/>
    </contour>
  </outline>
</glyph>
<glyph name="kcommaaccent" format="1">
  <advance width="667"/>
  <unicode hex="0137"/>
  <outline>
    <contour>
      <point x="259" y="726" type="line"/>
      <point x="60" y="726" type="line"/>
      <point x="60" y="0" type="line"/>
      <point x="259" y="0" type="line"/>
      <point x="259" y="114" type="line"/>
      <point x="328" y="181" type="line"/>
      <point x="439" y="0" type="line"/>
      <point x="665" y="0" type="line"/>
      <point x="465" y="315" type="line"/>
      <point x="660" y="528" type="line"/>
      <point x="428" y="528" type="line"/>
      <point x="259" y="326" type="line"/>
    </contour>
    <contour>
      <point x="398" y="-59" type="line"/>
      <point x="269" y="-59" type="line"/>
      <point x="269" y="-175" type="line"/>
      <point x="318" y="-175" type="line"/>
      <point x="277" y="-267" type="line"/>
      <point x="344" y="-267" type="line"/>
      <point x="398" y="-168" type="line"/>
    </contour>
  </outline>
</glyph>
<glyph name="napostrophe" format="1">
  <advance width="858"/>
  <unicode hex="0149"/>
  <outline>
    <contour>
      <point x="210" y="688" type="line"/>
      <point x="81" y="688" type="line"/>
      <point x="81" y="572" type="line"/>
      <point x="130" y="572" type="line"/>
      <point x="89" y="480" type="line"/>
      <point x="156" y="480" type="line"/>
      <point x="210" y="579" type="line"/>
    </contour>
    <contour>
      <point x="540" y="540"/>
      <point x="468" y="504"/>
      <point x="427" y="448" type="curve"/>
      <point x="414" y="528" type="line"/>
      <point x="251" y="528" type="line"/>
      <point x="251" y="0" type="line"/>
      <point x="450" y="0" type="line"/>
      <point x="450" y="310" type="line" smooth="yes"/>
      <point x="450" y="355"/>
      <point x="483" y="393"/>
      <point x="533" y="393" type="curve" smooth="yes"/>
      <point x="577" y="393"/>
      <point x="600" y="362"/>
      <point x="600" y="318" type="curve" smooth="yes"/>
      <point x="600" y="0" type="line"/>
      <point x="799" y="0" type="line"/>
      <point x="799" y="342" type="line" smooth="yes"/>
      <point x="799" y="467"/>
      <point x="740" y="540"/>
      <point x="615" y="540" type="curve" smooth="yes"/>
    </contour>
  </outline>
</glyph>
<glyph name="Omacron" format="1">
  <advance width="833"/>
  <unicode hex="014C"/>
  <outline>
    <contour>
      <point x="181" y="700"/>
      <point x="45" y="579"/>
      <point x="45" y="344" type="curve" smooth="yes"/>
      <point x="45" y="109"/>
      <point x="181" y="-12"/>
      <point x="416" y="-12" type="curve" smooth="yes"/>
      <point x="651" y="-12"/>
      <point x="788" y="109"/>
      <point x="788" y="344" type="curve" smooth="yes"/>
      <point x="788" y="579"/>
      <point x="651" y="700"/>
      <point x="416" y="700" type="curve" smooth="yes"/>
    </contour>
    <contour>
      <point x="513" y="535"/>
      <point x="562" y="470"/>
      <point x="562" y="376" type="curve" smooth="yes"/>
      <point x="562" y="312" type="line" smooth="yes"/>
      <point x="562" y="218"/>
      <point x="513" y="153"/>
      <point x="416" y="153" type="curve" smooth="yes"/>
      <point x="319" y="153"/>
      <point x="271" y="218"/>
      <point x="271" y="312" type="curve" smooth="yes"/>
      <point x="271" y="376" type="line" smooth="yes"/>
      <point x="271" y="470"/>
      <point x="319" y="535"/>
      <point x="416" y="535" type="curve" smooth="yes"/>
    </contour>
    <contour>
      <point x="575" y="865" type="line"/>
      <point x="258" y="865" type="line"/>
      <point x="258" y="765" type="line"/>
      <point x="575" y="765" type="line"/>
    </contour>
  </outline>
</glyph>
<glyph name="rcaron" format="1">
  <advance width="444"/>
  <unicode hex="0159"/>
  <outline>
    <contour>
      <point x="318" y="541"/>
      <point x="261" y="511"/>
      <point x="236" y="448" type="curve"/>
      <point x="223" y="528" type="line"/>
      <point x="60" y="528" type="line"/>
      <point x="60" y="0" type="line"/>
      <point x="259" y="0" type="line"/>
      <point x="259" y="235" type="line" smooth="yes"/>
      <point x="259" y="315"/>
      <point x="290" y="362"/>
      <point x="376" y="362" type="curve" smooth="yes"/>
      <point x="440" y="362" type="line"/>
      <point x="440" y="529" type="line"/>
      <point x="440" y="529"/>
      <point x="418" y="541"/>
      <point x="381" y="541" type="curve" smooth="yes"/>
    </contour>
    <contour>
      <point x="425" y="725" type="line"/>
      <point x="295" y="725" type="line"/>
      <point x="221" y="648" type="line"/>
      <point x="147" y="725" type="line"/>
      <point x="19" y="725" type="line"/>
      <point x="158" y="580" type="line"/>
      <point x="286" y="580" type="line"/>
    </contour>
  </outline>
</glyph>
<glyph name="Uhungarumlaut" format="1">
  <advance width="833"/>
  <unicode hex="0170"/>
  <outline>
    <contour>
      <point x="759" y="688" type="line"/>
      <point x="538" y="688" type="line"/>
      <point x="538" y="280" type="line" smooth="yes"/>
      <point x="538" y="206"/>
      <point x="497" y="153"/>
      <point x="416" y="153" type="curve" smooth="yes"/>
      <point x="335" y="153"/>
      <point x="295" y="206"/>
      <point x="295" y="280" type="curve" smooth="yes"/>
      <point x="295" y="688" type="line"/>
      <point x="74" y="688" type="line"/>
      <point x="74" y="277" type="line" smooth="yes"/>
      <point x="74" y="87"/>
      <point x="201" y="-12"/>
      <point x="417" y="-12" type="curve" smooth="yes"/>
      <point x="633" y="-12"/>
      <point x="759" y="87"/>
      <point x="759" y="277" type="curve" smooth="yes"/>
    </contour>
    <contour>
      <point x="500" y="886" type="line"/>
      <point x="322" y="886" type="line"/>
      <point x="246" y="752" type="line"/>
      <point x="363" y="752" type="line"/>
      <point x="502" y="882" type="line"/>
    </contour>
    <contour>
      <point x="711" y="886" type="line"/>
      <point x="533" y="886" type="line"/>
      <point x="457" y="752" type="line"/>
      <point x="574" y="752" type="line"/>
      <point x="713" y="882" type="line"/>
    </contour>
  </outline>
</glyph>
<glyph name="Ydieresis" format="1">
  <advance width="778"/>
  <unicode hex="0178"/>
  <outline>
    <contour>
      <point x="770" y="688" type="line"/>
      <point x="529" y="688" type="line"/>
      <point x="397" y="459" type="line"/>
      <point x="393" y="459" type="line"/>
      <point x="261" y="688" type="line"/>
      <point x="7" y="688" type="line"/>
      <point x="280" y="267" type="line"/>
      <point x="280" y="0" type="line"/>
      <point x="501" y="0" type="line"/>
      <point x="501" y="267" type="line"/>
    </contour>
    <contour>
      <point x="575" y="885" type="line"/>
      <point x="423" y="885" type="line"/>
      <point x="423" y="746" type="line"/>
      <point x="575" y="746" type="line"/>
    </contour>
    <contour>
      <point x="355" y="885" type="line"/>
      <point x="203" y="885" type="line"/>
      <point x="203" y="746" type="line"/>
      <point x="355" y="746" type="line"/>
    </contour>
  </outline>
</glyph>
<glyph name="pi" format="1">
  <advance width="707"/>
  <unicode hex="03C0"/>
  <outline>
    <contour>
      <point x="679" y="528" type="line"/>
      <point x="219" y="528" type="line" smooth="yes"/>
      <point x="111" y="528"/>
      <point x="47" y="515"/>
      <point x="22" y="492" type="curve"/>
      <point x="37" y="393" type="line"/>
      <point x="64" y="400"/>
      <point x="99" y="403"/>
      <point x="143" y="403" type="curve"/>
      <point x="143" y="295"/>
      <point x="113" y="103"/>
      <point x="81" y="0" type="curve"/>
      <point x="257" y="0" type="line"/>
      <point x="291" y="80"/>
      <point x="316" y="286"/>
      <point x="320" y="403" type="curve"/>
      <point x="412" y="403" type="line"/>
      <point x="412" y="153" type="line" smooth="yes"/>
      <point x="412" y="82"/>
      <point x="417" y="19"/>
      <point x="431" y="0" type="curve"/>
      <point x="606" y="0" type="line"/>
      <point x="599" y="33"/>
      <point x="593" y="90"/>
      <point x="593" y="165" type="curve" smooth="yes"/>
      <point x="593" y="403" type="line"/>
      <point x="666" y="403" type="line"/>
    </contour>
  </outline>
</glyph>
<glyph name="quotedblbase" format="1">
  <advance width="500"/>
  <unicode hex="201E"/>
  <outline>
    <contour>
      <point x="230" y="175" type="line"/>
      <point x="44" y="175" type="line"/>
      <point x="44" y="0" type="line"/>
      <point x="115" y="0" type="line"/>
      <point x="44" y="-182" type="line"/>
      <point x="139" y="-182" type="line"/>
      <point x="230" y="10" type="line"/>
    </contour>
    <contour>
      <point x="459" y="175" type="line"/>
      <point x="273" y="175" type="line"/>
      <point x="273" y="0" type="line"/>
      <point x="344" y="0" type="line"/>
      <point x="273" y="-182" type="line"/>
      <point x="368" y="-182" type="line"/>
      <point x="459" y="10" type="line"/>
    </contour>
  </outline>
</glyph>
<glyph name="dagger" format="1">
  <advance width="667"/>
  <unicode hex="2020"/>
  <outline>
    <contour>
      <point x="410" y="688" type="line"/>
      <point x="263" y="688" type="line"/>
      <point x="283" y="486" type="line"/>
      <point x="69" y="507" type="line"/>
      <point x="69" y="360" type="line"/>
      <point x="283" y="381" type="line"/>
      <point x="263" y="-185" type="line"/>
      <point x="410" y="-185" type="line"/>
      <point x="390" y="381" type="line"/>
      <point x="604" y="360" type="line"/>
      <point x="604" y="507" type="line"/>
      <point x="390" y="486" type="line"/>
    </contour>
  </outline>
</glyph>
<glyph name="ellipsis" format="1">
  <advance width="1000"/>
  <unicode hex="2026"/>
  <outline>
    <contour>
      <point x="273" y="199" type="line"/>
      <point x="61" y="199" type="line"/>
      <point x="61" y="0" type="line"/>
      <point x="273" y="0" type="line"/>
    </contour>
    <contour>
      <point x="606" y="199" type="line"/>
      <point x="394" y="199" type="line"/>
      <point x="394" y="0" type="line"/>
      <point x="606" y="0" type="line"/>
    </contour>
    <contour>
      <point x="940" y="199" type="line"/>
      <point x="728" y="199" type="line"/>
      <point x="728" y="0" type="line"/>
      <point x="940" y="0" type="line"/>
    </contour>
  </outline>
</glyph>
<glyph name="lira" format="1">
  <advance width="667"/>
  <unicode hex="20A4"/>
  <outline>
    <contour>
      <point x="203" y="700"/>
      <point x="125" y="608"/>
      <point x="125" y="493" type="curve" smooth="yes"/>
      <point x="125" y="425" type="line"/>
      <point x="31" y="425" type="line"/>
      <point x="31" y="342" type="line"/>
      <point x="125" y="342" type="line"/>
      <point x="125" y="298" type="line"/>
      <point x="31" y="298" type="line"/>
      <point x="31" y="215" type="line"/>
      <point x="125" y="215" type="line"/>
      <point x="125" y="147" type="line"/>
      <point x="61" y="147" type="line"/>
      <point x="61" y="0" type="line"/>
      <point x="584" y="0" type="line"/>
      <point x="584" y="147" type="line"/>
      <point x="295" y="147" type="line"/>
      <point x="304" y="215" type="line"/>
      <point x="439" y="215" type="line"/>
      <point x="439" y="298" type="line"/>
      <point x="316" y="298" type="line"/>
      <point x="322" y="341" type="line"/>
      <point x="439" y="341" type="line"/>
      <point x="439" y="425" type="line"/>
      <point x="322" y="425" type="line"/>
      <point x="322" y="494" type="line" smooth="yes"/>
      <point x="322" y="526"/>
      <point x="349" y="552"/>
      <point x="381" y="552" type="curve" smooth="yes"/>
      <point x="413" y="552"/>
      <point x="439" y="526"/>
      <point x="439" y="494" type="curve" smooth="yes"/>
      <point x="439" y="470" type="line"/>
      <point x="638" y="470" type="line"/>
      <point x="638" y="494" type="line" smooth="yes"/>
      <point x="638" y="608"/>
      <point x="550" y="700"/>
      <point x="381" y="700" type="curve" smooth="yes"/>
    </contour>
  </outline>
</glyph>
<glyph name="uni2113" format="1">
  <advance width="586"/>
  <unicode hex="2113"/>
  <outline>
    <contour>
      <point x="200" y="737"/>
      <point x="113" y="653"/>
      <point x="113" y="465" type="curve" smooth="yes"/>
      <point x="113" y="254" type="line"/>
      <point x="84" y="233"/>
      <point x="83" y="233"/>
      <point x="53" y="213" type="curve"/>
      <point x="53" y="98" type="line"/>
      <point x="71" y="109"/>
      <point x="98" y="128"/>
      <point x="117" y="140" type="curve"/>
      <point x="117" y="59"/>
      <point x="193" y="-12"/>
      <point x="327" y="-12" type="curve" smooth="yes"/>
      <point x="392" y="-12"/>
      <point x="460" y="6"/>
      <point x="518" y="54" type="curve"/>
      <point x="518" y="205" type="line"/>
      <point x="514" y="205" type="line"/>
      <point x="479" y="160"/>
      <point x="428" y="120"/>
      <point x="370" y="120" type="curve" smooth="yes"/>
      <point x="316" y="120"/>
      <point x="283" y="150"/>
      <point x="281" y="198" type="curve" smooth="yes"/>
      <point x="280" y="224" type="line"/>
      <point x="421" y="337"/>
      <point x="510" y="436"/>
      <point x="510" y="552" type="curve" smooth="yes"/>
      <point x="510" y="651"/>
      <point x="455" y="737"/>
      <point x="330" y="737" type="curve" smooth="yes"/>
    </contour>
    <contour>
      <point x="373" y="629"/>
      <point x="388" y="602"/>
      <point x="388" y="562" type="curve" smooth="yes"/>
      <point x="388" y="504"/>
      <point x="350" y="432"/>
      <point x="280" y="364" type="curve"/>
      <point x="280" y="496" type="line" smooth="yes"/>
      <point x="280" y="598"/>
      <point x="311" y="629"/>
      <point x="339" y="629" type="curve" smooth="yes"/>
    </contour>
  </outline>
</glyph>
<glyph name="trademark" format="1">
  <advance width="950"/>
  <unicode hex="2122"/>
  <outline>
    <contour>
      <point x="914" y="688" type="line"/>
      <point x="740" y="688" type="line"/>
      <point x="682" y="458" type="line"/>
      <point x="677" y="458" type="line"/>
      <point x="618" y="688" type="line"/>
      <point x="438" y="688" type="line"/>
      <point x="438" y="290" type="line"/>
      <point x="555" y="290" type="line"/>
      <point x="555" y="414" type="line" smooth="yes"/>
      <point x="555" y="481"/>
      <point x="543" y="559"/>
      <point x="543" y="559" type="curve"/>
      <point x="547" y="559" type="line"/>
      <point x="621" y="290" type="line"/>
      <point x="721" y="290" type="line"/>
      <point x="795" y="560" type="line"/>
      <point x="799" y="560" type="line"/>
      <point x="799" y="560"/>
      <point x="788" y="481"/>
      <point x="788" y="414" type="curve" smooth="yes"/>
      <point x="788" y="290" type="line"/>
      <point x="914" y="290" type="line"/>
    </contour>
    <contour>
      <point x="407" y="688" type="line"/>
      <point x="18" y="688" type="line"/>
      <point x="18" y="586" type="line"/>
      <point x="149" y="586" type="line"/>
      <point x="149" y="290" type="line"/>
      <point x="277" y="290" type="line"/>
      <point x="277" y="586" type="line"/>
      <point x="407" y="586" type="line"/>
    </contour>
  </outline>
</glyph>
<glyph name="partialdiff" format="1">
  <advance width="500"/>
  <unicode hex="2202"/>
  <outline>
    <contour>
      <point x="149" y="700"/>
      <point x="102" y="684"/>
      <point x="69" y="667" type="curve"/>
      <point x="69" y="539" type="line"/>
      <point x="89" y="550"/>
      <point x="130" y="570"/>
      <point x="187" y="570" type="curve" smooth="yes"/>
      <point x="282" y="570"/>
      <point x="335" y="479"/>
      <point x="335" y="385" type="curve" smooth="yes"/>
      <point x="335" y="380"/>
      <point x="334" y="364"/>
      <point x="334" y="364" type="curve"/>
      <point x="319" y="388"/>
      <point x="274" y="440"/>
      <point x="200" y="440" type="curve" smooth="yes"/>
      <point x="87" y="440"/>
      <point x="9" y="341"/>
      <point x="9" y="206" type="curve" smooth="yes"/>
      <point x="9" y="100"/>
      <point x="79" y="-13"/>
      <point x="226" y="-13" type="curve" smooth="yes"/>
      <point x="390" y="-13"/>
      <point x="481" y="140"/>
      <point x="481" y="353" type="curve" smooth="yes"/>
      <point x="481" y="568"/>
      <point x="363" y="700"/>
      <point x="213" y="700" type="curve" smooth="yes"/>
    </contour>
    <contour>
      <point x="286" y="326"/>
      <point x="316" y="278"/>
      <point x="321" y="252" type="curve"/>
      <point x="314" y="187"/>
      <point x="278" y="107"/>
      <point x="225" y="107" type="curve" smooth="yes"/>
      <point x="186" y="107"/>
      <point x="158" y="149"/>
      <point x="158" y="203" type="curve" smooth="yes"/>
      <point x="158" y="270"/>
      <point x="191" y="326"/>
      <point x="241" y="326" type="curve" smooth="yes"/>
    </contour>
  </outline>
</glyph>
<glyph name="notequal" format="1">
  <advance width="660"/>
  <unicode hex="2260"/>
  <outline>
    <contour>
      <point x="557" y="528" type="line"/>
      <point x="444" y="528" type="line"/>
      <point x="389" y="443" type="line"/>
      <point x="66" y="443" type="line"/>
      <point x="66" y="311" type="line"/>
      <point x="304" y="311" type="line"/>
      <point x="243" y="217" type="line"/>
      <point x="66" y="217" type="line"/>
      <point x="66" y="85" type="line"/>
      <point x="158" y="85" type="line"/>
      <point x="103" y="0" type="line"/>
      <point x="216" y="0" type="line"/>
      <point x="271" y="85" type="line"/>
      <point x="594" y="85" type="line"/>
      <point x="594" y="217" type="line"/>
      <point x="356" y="217" type="line"/>
      <point x="417" y="311" type="line"/>
      <point x="594" y="311" type="line"/>
      <point x="594" y="443" type="line"/>
      <point x="502" y="443" type="line"/>
    </contour>
  </outline>
</glyph>
<glyph name="house" format="1">
  <advance width="600"/>
  <unicode hex="2302"/>
  <outline>
    <contour>
      <point x="300" y="563" type="line"/>
      <point x="75" y="310" type="line"/>
      <point x="75" y="0" type="line"/>
      <point x="525" y="0" type="line"/>
      <point x="525" y="310" type="line"/>
    </contour>
    <contour>
      <point x="300" y="426" type="line"/>
      <point x="427" y="284" type="line"/>
      <point x="427" y="79" type="line"/>
      <point x="172" y="79" type="line"/>
      <point x="172" y="284" type="line"/>
    </contour>
  </outline>
</glyph>
<glyph name="integralbt" format="1">
  <advance width="600"/>
  <unicode hex="2321"/>
  <outline>
    <contour>
      <point x="232" y="848" type="line"/>
      <point x="240" y="356"/>
      <point x="246" y="-135"/>
      <point x="246" y="-135" type="curve"/>
      <point x="246" y="-175"/>
      <point x="192" y="-176"/>
      <point x="165" y="-176" type="curve"/>
      <point x="165" y="-244" type="line"/>
      <point x="242" y="-244" type="line" smooth="yes"/>
      <point x="310" y="-244"/>
      <point x="383" y="-209"/>
      <point x="383" y="-132" type="curve" smooth="yes"/>
      <point x="383" y="-57"/>
      <point x="377" y="396"/>
      <point x="371" y="848" type="curve"/>
    </contour>
  </outline>
</glyph>
